<svg xmlns="http://www.w3.org/2000/svg" width="1400" height="600" viewBox="0 0 1400 600" version="1.1">
	<path d="M 230 242 L 230 345 266.790 345 C 307.337 345, 309.709 344.729, 321.946 338.707 C 329.837 334.823, 339.966 325.611, 345.179 317.578 C 357.434 298.693, 357.323 271.691, 344.912 253.107 C 342.680 249.763, 337.737 244.184, 333.929 240.708 L 327.004 234.388 330.572 230.944 C 346.024 216.028, 349.608 188.155, 338.719 167.581 C 334.299 159.231, 323.999 149.101, 315.941 145.178 C 303.981 139.357, 300.969 139, 263.790 139 L 230 139 230 242 M 385 231.557 C 385 295.759, 385.338 325.457, 386.104 328.499 C 388.164 336.678, 397.737 344.918, 405.250 344.978 L 408 345 407.978 250.750 C 407.957 161.068, 407.866 156.306, 406.100 152.500 C 402.760 145.301, 394.093 139, 387.532 139 L 385 139 385 231.557 M 1142.970 141.250 C 1127.393 149.119, 1131.150 171.670, 1148.666 175.441 C 1156.222 177.067, 1165.506 171.479, 1168.568 163.462 C 1174.511 147.899, 1158.062 133.626, 1142.970 141.250 M 1143.641 144.898 C 1134.161 151.148, 1134.924 165.176, 1145.020 170.248 C 1157.589 176.563, 1170.520 163.327, 1164.394 150.417 C 1161.106 143.488, 1150.185 140.584, 1143.641 144.898 M 1144 156.500 C 1144 165.333, 1144.140 166, 1146 166 C 1147.467 166, 1148 165.333, 1148 163.500 C 1148 161.506, 1148.502 161, 1150.477 161 C 1152.016 161, 1153.574 161.947, 1154.592 163.500 C 1155.493 164.875, 1157.104 166, 1158.172 166 C 1160.037 166, 1160.047 165.888, 1158.414 163.123 C 1156.834 160.449, 1156.830 160.081, 1158.357 157.901 C 1160.637 154.646, 1160.413 152.322, 1157.545 149.455 C 1155.530 147.439, 1154.100 147, 1149.545 147 L 1144 147 1144 156.500 M 1148 154 C 1148 156.995, 1148.151 157.108, 1151.750 156.810 C 1155.001 156.541, 1155.500 156.167, 1155.500 154 C 1155.500 151.833, 1155.001 151.459, 1151.750 151.190 C 1148.151 150.892, 1148 151.005, 1148 154 M 253 194.030 L 253 226.193 275.250 225.837 C 296.729 225.494, 297.692 225.392, 303.046 222.890 C 310.782 219.274, 315.401 214.886, 318.953 207.778 C 321.498 202.686, 322 200.500, 322 194.518 C 322 190.579, 321.284 185.254, 320.408 182.684 C 318.352 176.651, 311.094 168.617, 304.608 165.195 C 299.547 162.525, 299.284 162.497, 276.250 162.184 L 253 161.867 253 194.030 M 439.204 248.376 L 439.500 294.500 442.179 301.835 C 447.999 317.766, 458.919 330.619, 472.732 337.793 C 482.975 343.113, 490.688 345, 502.184 345 C 519.404 345, 533.257 339.499, 545.625 327.751 C 554.227 319.580, 558.740 312.630, 562.676 301.490 L 565.500 293.500 565.806 248.114 L 566.113 202.727 561.444 203.253 C 554.997 203.980, 549.262 208.241, 545.793 214.881 L 543 220.228 543 252.904 C 543 289.199, 542.498 293.182, 536.708 302.862 C 532.749 309.479, 526.514 315.107, 519.124 318.734 C 514.019 321.239, 512.483 321.494, 502.484 321.497 C 492.087 321.500, 491.100 321.319, 484.895 318.266 C 476.872 314.320, 468.957 306.279, 465.196 298.253 L 462.500 292.500 461.976 256 C 461.408 216.493, 461.353 216.090, 455.689 210.165 C 451.851 206.151, 447.806 203.905, 442.704 202.957 L 438.908 202.252 439.204 248.376 M 727.880 202.423 C 727.080 203.262, 792.539 344.090, 794.226 345.161 C 795.939 346.248, 796.344 346.206, 798.273 344.750 C 799.665 343.699, 862.740 209.545, 864.605 203.669 C 865.202 201.789, 864.857 201.724, 857.061 202.258 C 846.389 202.990, 838.940 206.447, 835.150 212.428 C 833.693 214.728, 824.416 234.017, 814.536 255.291 C 804.656 276.566, 796.251 293.641, 795.860 293.236 C 795.468 292.831, 786.806 274.541, 776.609 252.592 C 766.014 229.783, 756.903 211.465, 755.346 209.839 C 751.048 205.354, 745.139 203.024, 736.392 202.366 C 732.052 202.040, 728.221 202.065, 727.880 202.423 M 883.204 248.846 L 883.500 295.500 886.170 302.807 C 893.311 322.353, 909.518 337.620, 929.500 343.623 C 933.766 344.905, 938.679 345.413, 946.500 345.382 C 955.810 345.344, 958.728 344.916, 965.490 342.595 C 988.839 334.582, 1004.254 316.836, 1008.572 293 C 1010.057 284.799, 1010.668 203.509, 1009.250 202.679 C 1007.595 201.711, 998.705 204.889, 995.253 207.683 C 993.232 209.319, 990.548 212.605, 989.289 214.986 C 987.044 219.232, 987 219.918, 986.994 250.907 C 986.991 268.283, 986.550 285.177, 986.014 288.449 C 983.226 305.478, 969.912 318.940, 952.729 322.106 C 935.621 325.258, 917.392 315.739, 909.439 299.500 L 906.500 293.500 906 256.500 C 905.546 222.895, 905.329 219.179, 903.636 216 C 899.767 208.737, 894.773 204.858, 887.059 203.125 L 882.908 202.192 883.204 248.846 M 1090.193 203.072 C 1073.613 205.226, 1060.067 211.852, 1048.500 223.467 C 1039.364 232.641, 1034.110 241.015, 1030.284 252.500 C 1027.936 259.551, 1027.615 262.102, 1027.584 274 C 1027.551 286.609, 1027.754 288.078, 1030.659 296.261 C 1035.016 308.533, 1039.258 315.242, 1048.523 324.513 C 1062.361 338.360, 1078.576 345.014, 1098.410 344.985 C 1114.643 344.961, 1127.397 340.888, 1140.491 331.544 L 1146.789 327.049 1149.419 332.425 C 1153.022 339.789, 1160.339 345, 1167.076 345 L 1170.057 345 1169.779 281.750 C 1169.473 212.294, 1169.810 216.082, 1163.364 209.636 C 1159.836 206.108, 1155.596 203.866, 1150.750 202.966 L 1147 202.269 1147 239.998 C 1147 261.479, 1146.560 280.045, 1145.979 283.109 C 1144.448 291.185, 1139.716 300.362, 1133.930 306.480 C 1123.726 317.270, 1112.932 322, 1098.516 322 C 1079.622 322, 1064.333 312.771, 1055.676 296.140 C 1048.028 281.449, 1048.086 266.437, 1055.847 251.535 C 1060.771 242.079, 1068.068 235.009, 1077.719 230.343 C 1084.765 226.937, 1086.437 226.543, 1095.420 226.168 C 1104.016 225.809, 1106.634 226.122, 1115.037 228.510 C 1126.419 231.746, 1131.551 231.442, 1137.937 227.154 C 1141.652 224.659, 1145.723 220.228, 1144.852 219.628 C 1144.658 219.495, 1142.700 218.007, 1140.500 216.322 C 1127.498 206.363, 1106.808 200.914, 1090.193 203.072 M 253 285.561 L 253 322.121 279.250 321.811 L 305.500 321.500 311.768 318.101 C 319.501 313.908, 324.305 308.710, 328.262 300.254 C 330.894 294.629, 331.300 292.633, 331.300 285.311 C 331.300 277.460, 331.023 276.319, 327.400 269.224 C 322.843 260.299, 316.397 254.415, 307.556 251.107 C 302.393 249.175, 299.890 249, 277.462 249 L 253 249 253 285.561 M 705 400 C 702.592 402.408, 702.553 402.917, 704.557 405.777 C 706.555 408.630, 711.502 408.800, 712.965 406.066 C 714.417 403.353, 714.255 401.398, 712.429 399.571 C 710.288 397.431, 707.402 397.598, 705 400 M 1076 400 C 1073.592 402.408, 1073.553 402.917, 1075.557 405.777 C 1077.272 408.226, 1081.811 408.789, 1083.800 406.800 C 1086.656 403.944, 1084.041 398, 1079.929 398 C 1078.868 398, 1077.100 398.900, 1076 400 M 279.667 400.667 C 279.300 401.033, 279 411.833, 279 424.667 L 279 448 283.500 448 L 288 448 288 424 L 288 400 284.167 400 C 282.058 400, 280.033 400.300, 279.667 400.667 M 966 408.392 L 966 416.784 962.289 414.892 C 957.375 412.387, 952.410 412.503, 946.962 415.250 C 939.330 419.099, 935.780 429.877, 939.377 438.282 C 943.446 447.792, 956.877 451.818, 964.509 445.814 C 966.993 443.861, 967 443.861, 967 445.927 C 967 447.679, 967.620 448, 971 448 L 975 448 975 424 L 975 400 970.500 400 L 966 400 966 408.392 M 246.340 403.435 C 240.380 405.299, 236.408 408.449, 233.254 413.815 C 230.957 417.722, 230.500 419.662, 230.500 425.500 C 230.500 431.369, 230.953 433.271, 233.305 437.272 C 236.750 443.133, 241.890 446.663, 249.214 448.199 C 256.480 449.723, 264.294 448.086, 269.077 444.037 L 272.500 441.139 269.903 438.496 L 267.307 435.852 263.403 438.517 C 260.067 440.795, 258.692 441.125, 253.935 440.791 C 247.289 440.323, 243.006 437.640, 240.510 432.379 C 238.295 427.712, 238.893 420.364, 241.821 416.251 C 246.463 409.732, 256.755 407.987, 263.514 412.574 L 267.307 415.148 269.903 412.504 L 272.500 409.861 269.150 407.024 C 263.554 402.286, 254.546 400.869, 246.340 403.435 M 466.878 403.563 C 456.252 406.835, 449.479 418.640, 451.813 429.820 C 453.940 440.005, 460 446.057, 470.219 448.200 C 477.570 449.742, 485.869 447.994, 490.336 443.963 L 493.500 441.108 490.903 438.480 L 488.307 435.852 484.514 438.426 C 474.306 445.353, 460.033 437.816, 460.033 425.500 C 460.033 413.184, 474.306 405.647, 484.514 412.574 L 488.307 415.148 490.853 412.601 L 493.400 410.055 491.009 407.509 C 488.322 404.649, 480.455 401.965, 475.068 402.070 C 473.106 402.108, 469.420 402.780, 466.878 403.563 M 853 425.500 L 853 448 857.500 448 L 862 448 862 438.500 L 862 429 873.500 429 L 885 429 885 438.500 L 885 448 889.500 448 L 894 448 894 425.500 L 894 403 889.500 403 L 885 403 885 412 L 885 421 873.500 421 L 862 421 862 412 L 862 403 857.500 403 L 853 403 853 425.500 M 808 410 C 808 413.600, 807.750 414, 805.500 414 C 803.310 414, 803 414.433, 803 417.500 C 803 420.567, 803.310 421, 805.500 421 C 807.986 421, 808 421.050, 808.002 430.250 C 808.004 441.962, 809.688 445.906, 815.500 447.810 C 819.459 449.107, 824.184 448.804, 826.910 447.078 C 828.083 446.334, 828.107 445.671, 827.048 443.117 C 825.946 440.455, 825.511 440.191, 823.762 441.127 C 822.320 441.899, 821.072 441.898, 819.374 441.124 C 817.117 440.096, 817 439.572, 817 430.521 L 817 421 821.500 421 C 825.976 421, 826 420.981, 826 417.500 C 826 414.019, 825.976 414, 821.500 414 L 817 414 817 410 L 817 406 812.500 406 L 808 406 808 410 M 1049 410 C 1049 413.600, 1048.750 414, 1046.500 414 C 1044.310 414, 1044 414.433, 1044 417.500 C 1044 420.567, 1044.310 421, 1046.500 421 C 1048.986 421, 1049 421.050, 1049.002 430.250 C 1049.004 441.962, 1050.688 445.906, 1056.500 447.810 C 1060.459 449.107, 1065.184 448.804, 1067.910 447.078 C 1069.083 446.334, 1069.107 445.671, 1068.048 443.117 C 1066.946 440.455, 1066.511 440.191, 1064.762 441.127 C 1063.320 441.899, 1062.072 441.898, 1060.374 441.124 C 1058.117 440.096, 1058 439.572, 1058 430.521 L 1058 421 1062.500 421 C 1066.976 421, 1067 420.981, 1067 417.500 C 1067 414.019, 1066.976 414, 1062.500 414 L 1058 414 1058 410 L 1058 406 1053.500 406 L 1049 406 1049 410 M 304.970 415.250 C 292.083 421.760, 291.810 439.814, 304.500 446.403 C 309.953 449.235, 319.199 449.252, 324 446.439 C 327.972 444.111, 328.166 443.441, 325.828 440.139 C 324.246 437.905, 324.031 437.865, 321.855 439.389 C 320.466 440.362, 317.524 441, 314.424 441 C 310.363 441, 308.740 440.488, 306.646 438.548 C 305.191 437.199, 304 435.637, 304 435.077 C 304 434.450, 309.100 433.951, 317.238 433.779 C 332.101 433.466, 332.023 433.513, 330.017 426.062 C 327.058 415.075, 315.334 410.014, 304.970 415.250 M 341.625 414.469 C 336.328 416.357, 335.680 417.202, 337.113 420.348 C 338.524 423.445, 338.640 423.466, 343.346 421.500 C 348.653 419.283, 352.689 419.598, 355.545 422.455 C 359.896 426.805, 358.910 428, 350.968 428 C 339.406 428, 335 430.900, 335 438.511 C 335 446.538, 345.576 451.398, 353.986 447.237 C 357.095 445.699, 358 445.561, 358 446.625 C 358 447.562, 359.273 448, 362 448 L 366 448 366 435.968 C 366 421.032, 364.872 417.751, 358.788 414.990 C 353.785 412.719, 347.102 412.517, 341.625 414.469 M 376.667 413.667 C 376.300 414.033, 376 421.908, 376 431.167 L 376 448 380.500 448 L 385 448 385 436.674 C 385 426.129, 385.159 425.199, 387.314 423.174 C 388.890 421.694, 390.885 421.005, 393.564 421.015 C 400.762 421.043, 402 423.452, 402 437.434 L 402 448 406 448 L 410 448 409.996 435.250 C 409.992 420.516, 408.698 417.025, 402.243 414.328 C 397.825 412.482, 390.349 413.070, 386.545 415.563 C 384.095 417.168, 384 417.151, 384 415.115 C 384 413.385, 383.394 413, 380.667 413 C 378.833 413, 377.033 413.300, 376.667 413.667 M 506.008 415.177 C 498.149 419.241, 494.598 427.590, 497.132 436.047 C 500.796 448.276, 517.033 452.733, 527.091 444.270 C 535.710 437.017, 534.725 421.702, 525.263 415.853 C 520.050 412.632, 511.511 412.332, 506.008 415.177 M 541 430.500 L 541 448 545 448 L 549 448 549 437.950 C 549 423.838, 550.662 421, 558.927 421 C 565.169 421, 566 422.801, 566 436.329 L 566 448 570.500 448 L 575 448 574.998 436.250 C 574.997 423.306, 573.803 419.330, 568.824 415.681 C 564.936 412.832, 557.378 412.409, 552.828 414.786 C 549.269 416.646, 549.141 416.648, 548.672 414.852 C 548.313 413.483, 547.251 413, 544.594 413 L 541 413 541 430.500 M 579 413.866 C 579 414.406, 582.212 422.329, 586.137 431.473 L 593.274 448.098 597.781 447.799 L 602.287 447.500 609.143 431.541 C 612.915 422.763, 616 414.974, 616 414.231 C 616 413.283, 614.893 412.972, 612.291 413.190 L 608.582 413.500 603.541 425.186 C 600.769 431.613, 598.256 437.107, 597.958 437.394 C 597.661 437.681, 595.128 432.423, 592.330 425.708 L 587.243 413.500 583.121 413.193 C 580.855 413.023, 579 413.327, 579 413.866 M 627.401 414.905 C 617.998 419.176, 614.588 432.566, 620.776 440.923 C 626.759 449.004, 639.079 451.110, 647.623 445.512 C 650.507 443.622, 650.635 441.884, 648.061 439.555 C 646.272 437.936, 645.946 437.924, 643.839 439.400 C 642.507 440.333, 639.531 441, 636.701 441 C 632.541 441, 631.392 440.535, 628.673 437.750 L 625.500 434.500 639.250 434.222 L 653 433.944 653 430.129 C 653 417.555, 639.390 409.461, 627.401 414.905 M 660.667 413.667 C 660.300 414.033, 660 421.908, 660 431.167 L 660 448 664.500 448 L 669 448 669 436.955 C 669 426.561, 669.145 425.764, 671.455 423.455 C 673.332 421.578, 674.965 421, 678.398 421 C 685.108 421, 686 422.844, 686 436.723 L 686 448 690.600 448 L 695.201 448 694.850 435.072 C 694.548 423.908, 694.217 421.759, 692.429 419.322 C 688.010 413.300, 679.592 411.385, 672.789 414.852 C 669.253 416.656, 669.143 416.656, 668.672 414.852 C 668.319 413.504, 667.255 413, 664.760 413 C 662.875 413, 661.033 413.300, 660.667 413.667 M 704.714 413.619 C 704.321 414.012, 704 421.908, 704 431.167 L 704 448 708.524 448 L 713.047 448 712.774 430.750 L 712.500 413.500 708.964 413.202 C 707.020 413.039, 705.107 413.226, 704.714 413.619 M 730.421 414.896 C 717.450 420.787, 716.806 439.664, 729.351 446.236 C 734.934 449.161, 744.154 449.279, 748.920 446.486 C 753.142 444.011, 753.442 443.137, 751.109 440.100 C 749.351 437.811, 749.157 437.777, 746.910 439.350 C 744.178 441.264, 736.868 441.533, 733.684 439.837 C 731.434 438.638, 729.088 436.073, 729.032 434.750 C 729.014 434.337, 734.864 434, 742.031 434 C 756.932 434, 757.174 433.854, 755.109 426.096 C 752.231 415.283, 740.894 410.140, 730.421 414.896 M 763.667 413.667 C 763.300 414.033, 763 421.908, 763 431.167 L 763 448 767.500 448 L 772 448 772 437.135 C 772 427.657, 772.265 425.933, 774.073 423.635 C 775.726 421.533, 776.990 421.003, 780.323 421.015 C 787.788 421.043, 789 423.335, 789 437.434 L 789 448 793 448 L 797 448 796.996 435.250 C 796.993 424.226, 796.719 422.052, 794.974 419.190 C 791.315 413.187, 783.068 411.424, 775.250 414.973 C 771.043 416.883, 771 416.882, 771 414.951 C 771 413.407, 770.305 413, 767.667 413 C 765.833 413, 764.033 413.300, 763.667 413.667 M 899.401 414.689 C 899.718 415.686, 903.137 423.700, 906.999 432.498 L 914.022 448.494 912.162 450.997 C 910.166 453.683, 905.442 454.842, 903.678 453.078 C 902.002 451.402, 901.171 451.768, 899.552 454.899 C 898.214 457.486, 898.218 457.936, 899.587 459.072 C 900.431 459.773, 903.456 460.533, 906.311 460.762 C 910.559 461.103, 912.135 460.747, 915 458.800 C 918.036 456.738, 919.718 453.642, 927.680 435.461 C 932.729 423.932, 936.892 414.163, 936.930 413.750 C 936.969 413.337, 935.246 413, 933.103 413 L 929.205 413 923.898 425.461 C 920.978 432.315, 918.344 437.687, 918.045 437.399 C 917.745 437.110, 915.250 431.615, 912.500 425.187 L 907.500 413.500 903.163 413.188 C 899.361 412.915, 898.897 413.100, 899.401 414.689 M 985 430.500 L 985 448 989 448 L 993 448 993 438.968 C 993 425.897, 995.571 421, 1002.434 421 C 1004.773 421, 1005 420.636, 1005 416.889 L 1005 412.777 1001.354 413.461 C 999.348 413.838, 996.705 414.803, 995.479 415.606 C 993.441 416.941, 993.205 416.892, 992.719 415.033 C 992.309 413.465, 991.366 413, 988.594 413 L 985 413 985 430.500 M 1013.625 414.469 C 1008.328 416.357, 1007.680 417.202, 1009.113 420.348 C 1010.524 423.445, 1010.640 423.466, 1015.346 421.500 C 1020.653 419.283, 1024.689 419.598, 1027.545 422.455 C 1031.896 426.805, 1030.910 428, 1022.968 428 C 1011.406 428, 1007 430.900, 1007 438.511 C 1007 446.538, 1017.576 451.398, 1025.986 447.237 C 1029.095 445.699, 1030 445.561, 1030 446.625 C 1030 447.562, 1031.273 448, 1034 448 L 1038 448 1038 435.148 C 1038 423.420, 1037.800 421.998, 1035.715 418.898 C 1032.009 413.385, 1022.189 411.416, 1013.625 414.469 M 1075.667 413.667 C 1075.300 414.033, 1075 421.908, 1075 431.167 L 1075 448 1079.500 448 L 1084 448 1084 430.500 L 1084 413 1080.167 413 C 1078.058 413, 1076.033 413.300, 1075.667 413.667 M 1100.970 415.250 C 1086.132 422.746, 1088.928 444.379, 1105.206 448.022 C 1117.879 450.858, 1128.006 442.975, 1127.996 430.282 C 1127.986 417.091, 1113.393 408.974, 1100.970 415.250 M 1136 430.500 L 1136 448 1140 448 L 1144 448 1144 437.950 C 1144 423.838, 1145.662 421, 1153.927 421 C 1160.169 421, 1161 422.801, 1161 436.329 L 1161 448 1165.500 448 L 1170 448 1169.998 436.250 C 1169.997 423.306, 1168.803 419.330, 1163.824 415.681 C 1159.936 412.832, 1152.378 412.409, 1147.828 414.786 C 1144.269 416.646, 1144.141 416.648, 1143.672 414.852 C 1143.313 413.483, 1142.251 413, 1139.594 413 L 1136 413 1136 430.500 M 306.646 422.452 C 301.695 427.041, 302.884 428, 313.526 428 L 323.051 428 321.515 425.030 C 318.605 419.402, 311.303 418.136, 306.646 422.452 M 510.476 421.357 C 504.417 424.075, 503.027 433.181, 507.923 438.077 C 513.064 443.218, 521.233 441.681, 523.977 435.056 C 527.632 426.231, 519.042 417.514, 510.476 421.357 M 628.923 422.923 C 627.315 424.531, 626 426.331, 626 426.923 C 626 427.617, 629.381 428, 635.500 428 C 641.619 428, 645 427.617, 645 426.923 C 645 426.331, 643.685 424.531, 642.077 422.923 C 639.913 420.759, 638.205 420, 635.500 420 C 632.795 420, 631.087 420.759, 628.923 422.923 M 733.500 421.208 C 731.058 422.608, 729.075 425.069, 729.032 426.750 C 729.009 427.664, 731.531 428, 738.406 428 C 747.358 428, 747.787 427.902, 747.283 425.976 C 746.012 421.116, 738.308 418.450, 733.500 421.208 M 952 421.273 C 950.625 421.956, 948.654 424.244, 947.621 426.356 C 946.017 429.634, 945.911 430.761, 946.900 434.061 C 948.352 438.907, 951.274 441, 956.586 441 C 962.468 441, 966 437.360, 966 431.298 C 966 425.833, 964.793 423.462, 961.020 421.510 C 957.491 419.686, 955.307 419.628, 952 421.273 M 1105.476 421.357 C 1099.649 423.971, 1098.139 432.635, 1102.589 437.923 C 1104.721 440.457, 1105.917 441, 1109.366 441 C 1114.335 441, 1117.265 439.188, 1118.977 435.056 C 1122.632 426.231, 1114.042 417.514, 1105.476 421.357 M 344.200 435.200 C 340.958 438.442, 343.745 442, 349.526 442 C 353.942 442, 358 438.976, 358 435.686 C 358 434.283, 356.942 434, 351.700 434 C 348.133 434, 344.879 434.521, 344.200 435.200 M 1016.200 435.200 C 1012.962 438.438, 1015.744 442, 1021.511 442 C 1026.107 442, 1030 439.230, 1030 435.961 C 1030 434.221, 1029.292 434, 1023.700 434 C 1020.133 434, 1016.879 434.521, 1016.200 435.200 M 419.200 439.200 C 417.693 440.707, 417.631 445.654, 419.108 446.567 C 420.177 447.227, 419.771 452.826, 418.395 456.413 C 417.924 457.639, 418.450 458, 420.708 458 C 423.392 458, 423.809 457.490, 425.825 451.750 C 429.294 441.872, 428.499 438, 423 438 C 421.570 438, 419.860 438.540, 419.200 439.200" stroke="none" fill="black" fill-rule="evenodd"/>
</svg>