<svg xmlns="http://www.w3.org/2000/svg" viewBox="-8 -8 800 158" version="1.1">
  <path d="M97.579 71.761C112.387 76.507 121.879 87.897 121.879 104.604C121.879 127.575 103.654 140.864 68.723 140.864H0V7.973H64.926C98.149 7.973 115.235 21.832 115.235 42.525C115.235 55.814 108.401 66.065 97.579 71.761ZM61.13 31.134H30.565V62.458H61.13C76.127 62.458 84.29 57.143 84.29 46.701C84.29 36.26 76.127 31.134 61.13 31.134ZM66.445 117.703C82.392 117.703 90.935 112.767 90.935 101.376C90.935 90.176 82.392 84.86 66.445 84.86H30.565V117.703Z" fill="#00336D"/>
  <path d="M143.142 140.864V0H172.757V140.864Z" fill="#00336D"/>
  <path d="M273.564 38.728H303.18V140.864H275.083V128.714C267.299 137.636 255.909 142.383 243.379 142.383C217.75 142.383 199.715 127.954 199.715 96.44V38.728H229.331V92.074C229.331 109.16 236.925 116.754 250.024 116.754C263.692 116.754 273.564 108.021 273.564 89.226Z" fill="#00336D"/>
  <path d="M430.755 90.176C430.755 92.454 430.375 95.681 430.185 98.149H352.919C355.766 110.869 366.588 118.652 382.155 118.652C392.976 118.652 400.759 115.425 407.784 108.78L423.541 125.866C414.048 136.687 399.81 142.383 381.395 142.383C346.084 142.383 323.113 120.171 323.113 89.796C323.113 59.231 346.464 37.209 377.598 37.209C407.594 37.209 430.755 57.333 430.755 90.176ZM377.788 59.611C364.309 59.611 354.627 67.774 352.539 80.873H402.848C400.759 67.964 391.077 59.611 377.788 59.611Z" fill="#00336D"/>
  <path d="M523.398 38.728H551.875L508.78 140.864H478.215L435.311 38.728H465.876L494.162 108.211Z" fill="#00336D"/>
  <path d="M637.304 38.728H666.92V140.864H638.823V128.714C631.039 137.636 619.649 142.383 607.119 142.383C581.49 142.383 563.455 127.954 563.455 96.44V38.728H593.071V92.074C593.071 109.16 600.664 116.754 613.764 116.754C627.432 116.754 637.304 108.021 637.304 89.226Z" fill="#00336D"/>
  <path d="M735.643 37.209C766.777 37.209 784.813 51.637 784.813 82.582V140.864H757.095V128.144C751.59 137.447 740.959 142.383 725.961 142.383C702.041 142.383 687.803 129.093 687.803 111.438C687.803 93.403 700.522 80.873 731.656 80.873H755.197C755.197 68.154 747.603 60.75 731.656 60.75C720.835 60.75 709.635 64.357 702.231 70.242L691.599 49.549C702.8 41.576 719.317 37.209 735.643 37.209ZM733.365 122.449C743.237 122.449 751.78 117.893 755.197 108.59V98.149H734.884C721.025 98.149 716.659 103.275 716.659 110.109C716.659 117.513 722.924 122.449 733.365 122.449Z" fill="#00336D"/>
</svg>
