<svg width="120" height="28" viewBox="0 0 120 28" fill="none" xmlns="http://www.w3.org/2000/svg"><path d="M22.6801 26.1277C21.0895 26.1277 19.7977 24.87 19.7977 23.3216V0.5C21.3883 0.5 22.6801 1.75761 22.6801 3.30609V26.1277Z" fill="currentColor"></path><path d="M76.9188 10.1022L72.2355 19.9092L67.5522 10.1022C67.0599 9.07397 65.9995 8.41443 64.8339 8.41443H63.4412L71.781 25.8819C71.962 26.2588 72.509 26.2588 72.6899 25.8819L81.0298 8.41443H79.637C78.4715 8.41443 77.4111 9.07397 76.9188 10.1022Z" fill="currentColor"></path><path d="M96.5735 11.2205V18.2378C96.5735 21.0275 94.2886 23.338 91.4231 23.3666C88.5324 23.3953 86.1718 21.1136 86.1718 18.3034V11.2205C86.1718 9.67206 84.88 8.41443 83.2894 8.41443V18.2133C83.2894 22.5555 86.8661 26.1441 91.3263 26.1687C95.8035 26.1932 99.4558 22.6538 99.4558 18.2993V8.41443C97.8653 8.41443 96.5735 9.67206 96.5735 11.2205Z" fill="currentColor"></path><path d="M39.9237 11.2205V18.1928C39.9237 20.9784 37.6389 23.2929 34.7733 23.3216C31.8826 23.3503 29.522 21.0685 29.522 18.2583V11.2205C29.522 9.67206 28.2302 8.41443 26.6396 8.41443V18.1723C26.6396 22.5146 30.2163 26.1031 34.6766 26.1277C39.1537 26.1523 42.8061 22.6129 42.8061 18.2583V8.41443C41.2155 8.41443 39.9237 9.67206 39.9237 11.2205Z" fill="currentColor"></path><path d="M117.032 8.41443V17.2711C117.032 20.6875 114.107 23.4527 110.573 23.3175C107.345 23.1946 104.732 20.6507 104.606 17.5087C104.467 14.0635 107.308 11.2205 110.817 11.2205C111.65 11.2205 112.45 11.3803 113.178 11.6711C114.33 12.134 115.656 11.8514 116.476 10.9338L116.784 10.5897C115.138 9.19686 112.98 8.36937 110.623 8.41443C105.797 8.51274 101.863 12.3143 101.728 17.013C101.581 22.0148 105.717 26.1236 110.821 26.1236C113.236 26.1236 115.433 25.2019 117.066 23.7025C117.259 25.0708 118.463 26.1236 119.918 26.1236V11.2164C119.918 9.66797 118.627 8.41034 117.036 8.41034" fill="currentColor"></path><path d="M12.2658 12.429C13.7385 11.1796 14.6726 9.34432 14.6726 7.30017C14.6726 3.55188 11.5378 0.5 7.68767 0.5H0V26.1277H8.22206C12.4215 26.1277 15.8424 22.8013 15.8424 18.7089C15.8424 16.0667 14.416 13.7399 12.27 12.429M2.88234 3.30609H7.69188C9.95568 3.30609 11.7945 5.09626 11.7945 7.30017C11.7945 9.50409 9.95568 11.2943 7.69188 11.2943H2.88234V3.30609ZM8.22206 23.3216H2.88234V14.0963H8.22206C10.8351 14.0963 12.9601 16.165 12.9601 18.7089C12.9601 21.2528 10.8351 23.3216 8.22206 23.3216Z" fill="currentColor"></path><path d="M59.8519 7.95971C54.2429 0.528672 54.1125 0.5 54.1125 0.5C54.1125 0.5 53.982 0.528672 48.373 7.95971C47.9186 8.5619 47.5146 9.15179 47.1612 9.7212C48.5245 8.906 50.1235 8.42671 51.8318 8.41442C56.8812 8.37755 61.0007 12.3635 61.0007 17.2711H49.7405C49.7405 15.8782 50.8977 14.7517 52.3284 14.7517H57.8742C56.8433 12.4495 54.4491 10.8518 51.6888 10.9379C48.2931 11.0444 45.5243 13.7153 45.3939 17.0212C45.2508 20.6302 48.2257 23.6083 51.8992 23.6083C53.5655 23.6083 55.0845 22.998 56.2374 21.9943C56.9107 21.4085 57.8995 21.3389 58.6401 21.8386L59.3638 22.3302C57.7186 24.6243 54.9877 26.1277 51.8992 26.1277C50.7588 26.1277 49.669 25.9228 48.6591 25.546C49.6059 26.271 50.7841 26.906 52.2021 27.287C52.5093 27.3689 53.3172 27.4959 54.1083 27.5C54.8993 27.4918 55.7114 27.3689 56.0144 27.287C59.4101 26.3776 61.4299 24.018 62.1578 22.4121C63.0078 20.5237 65.4988 15.4481 59.8477 7.96381" fill="#00BFBF"></path></svg>
