<svg xmlns="http://www.w3.org/2000/svg" viewBox="-50 -50 4386 1319" version="1.1">
  <path d="M597 364C654 394 690 448 690 518C690 627 600 700 425 700H83V0H445C629 0 725 70 725 191C725 279 675 339 597 364ZM405 578C484 578 527 551 527 496C527 441 484 413 405 413H244V578ZM433 122H244V295H433C517 295 562 267 562 208C562 148 517 122 433 122Z" transform="translate(0 968) scale(1 -1)" fill="#00336D"/>
  <path d="M72 0H228V742H72Z" transform="translate(765 968) scale(1 -1)" fill="#00336D"/>
  <path d="M458 538V272C458 173 406 127 334 127C265 127 225 167 225 257V538H69V234C69 68 164 -8 299 -8C365 -8 425 17 466 64V0H614V538Z" transform="translate(1066 968) scale(1 -1)" fill="#00336D"/>
  <path d="M599 267C599 440 477 546 319 546C155 546 32 430 32 269C32 109 153 -8 339 -8C436 -8 511 22 561 79L478 169C441 134 400 117 343 117C261 117 204 158 189 225H596C597 238 599 255 599 267ZM320 428C390 428 441 384 452 316H187C198 385 249 428 320 428Z" transform="translate(1753 968) scale(1 -1)" fill="#00336D"/>
  <path d="M456 538 302 172 153 538H-8L218 0H379L606 538Z" transform="translate(2384 968) scale(1 -1)" fill="#00336D"/>
  <path d="M458 538V272C458 173 406 127 334 127C265 127 225 167 225 257V538H69V234C69 68 164 -8 299 -8C365 -8 425 17 466 64V0H614V538Z" transform="translate(2982 968) scale(1 -1)" fill="#00336D"/>
  <path d="M289 546C203 546 116 523 57 481L113 372C152 403 211 422 268 422C352 422 392 383 392 316H268C104 316 37 250 37 155C37 62 112 -8 238 -8C317 -8 373 18 402 67V0H548V307C548 470 453 546 289 546ZM277 97C222 97 189 123 189 162C189 198 212 225 285 225H392V170C374 121 329 97 277 97Z" transform="translate(3669 968) scale(1 -1)" fill="#00336D"/>
</svg>
